# WaveFront *.obj file (generated by Autodesk ATF)

mtllib vpdholder_cap.mtl

g cap

v 14.000000 4.000000 24.000000
v 14.000000 7.000000 24.000000
v 14.000000 7.000000 20.000000
v 14.000000 4.000000 20.000000
v 0.000000 4.000000 24.000000
v 0.000000 4.000000 20.000000
v 0.000000 7.000000 24.000000
v 0.000000 7.000000 20.000000
v 24.320101 2.000000 22.000000
v -5.000000 2.000000 22.000000
v -5.000000 29.000000 22.000000
v 24.320101 29.000000 22.000000
v -3.800000 27.800000 22.000000
v -3.800000 3.200000 22.000000
v 23.120101 3.200000 22.000000
v 23.120101 27.800000 22.000000
v -5.000000 2.000000 24.000000
v -5.000000 29.000000 24.000000
v 24.320101 29.000000 24.000000
v 24.320101 2.000000 24.000000
v -3.800000 27.800000 20.000000
v -3.800000 3.200000 20.000000
v 23.120101 27.800000 20.000000
v 23.120101 3.200000 20.000000
vt -0.000000 2.400000 0.000000
vt -0.300000 2.400000 0.000000
vt -0.000000 2.000000 0.000000
vt -0.300000 2.000000 0.000000
vt -0.000000 2.400000 0.000000
vt -1.400000 2.400000 0.000000
vt -0.000000 2.000000 0.000000
vt -1.400000 2.000000 0.000000
vt 0.000000 2.400000 0.000000
vt -0.300000 2.400000 0.000000
vt 0.000000 2.000000 0.000000
vt -0.300000 2.000000 0.000000
vt 0.000000 2.400000 0.000000
vt -1.400000 2.400000 0.000000
vt 0.000000 2.000000 0.000000
vt -1.400000 2.000000 0.000000
vt 1.466005 -1.350000 0.000000
vt -1.346005 -1.230000 0.000000
vt -1.466005 -1.350000 0.000000
vt -1.346005 1.230000 0.000000
vt -1.466005 1.350000 0.000000
vt 1.346005 1.230000 0.000000
vt 1.466005 1.350000 0.000000
vt 1.346005 -1.230000 0.000000
vt -0.000000 0.000000 0.000000
vt 2.700000 0.000000 0.000000
vt -0.000000 0.200000 0.000000
vt 2.700000 0.200000 0.000000
vt -0.000000 0.000000 0.000000
vt 2.932010 0.000000 0.000000
vt -0.000000 0.200000 0.000000
vt 2.932010 0.200000 0.000000
vt 0.000000 0.000000 0.000000
vt 2.700000 0.000000 0.000000
vt 0.000000 0.200000 0.000000
vt 2.700000 0.200000 0.000000
vt 0.000000 0.000000 0.000000
vt 2.932010 0.000000 0.000000
vt 0.000000 0.200000 0.000000
vt 2.932010 0.200000 0.000000
vt 0.433995 -1.150000 0.000000
vt -0.966005 -1.150000 0.000000
vt -1.466005 -1.350000 0.000000
vt -0.966005 -0.850000 0.000000
vt -1.466005 1.350000 0.000000
vt 0.433995 -0.850000 0.000000
vt 1.466005 1.350000 0.000000
vt 1.466005 -1.350000 0.000000
vt 0.000000 0.000000 0.000000
vt 2.460000 0.000000 0.000000
vt 0.000000 0.200000 0.000000
vt 2.460000 0.200000 0.000000
vt -0.000000 0.000000 0.000000
vt 2.692010 0.000000 0.000000
vt -0.000000 0.200000 0.000000
vt 2.692010 0.200000 0.000000
vt 0.000000 0.000000 0.000000
vt 2.460000 0.000000 0.000000
vt 0.000000 0.200000 0.000000
vt 2.460000 0.200000 0.000000
vt 0.000000 0.000000 0.000000
vt 2.692010 0.000000 0.000000
vt 0.000000 0.200000 0.000000
vt 2.692010 0.200000 0.000000
vt 0.966005 -1.150000 0.000000
vt 1.346005 -1.230000 0.000000
vt 0.966005 -0.850000 0.000000
vt 1.346005 1.230000 0.000000
vt -0.433995 -0.850000 0.000000
vt -1.346005 1.230000 0.000000
vt -1.346005 -1.230000 0.000000
vt -0.433995 -1.150000 0.000000
vn -0.100000 0.000000 0.000000
vn -0.100000 0.000000 0.000000
vn -0.100000 0.000000 0.000000
vn -0.100000 0.000000 0.000000
vn -0.000000 0.100000 -0.000000
vn -0.000000 0.100000 -0.000000
vn -0.000000 0.100000 -0.000000
vn -0.000000 0.100000 -0.000000
vn 0.100000 0.000000 0.000000
vn 0.100000 0.000000 0.000000
vn 0.100000 0.000000 0.000000
vn 0.100000 0.000000 0.000000
vn 0.000000 -0.100000 0.000000
vn 0.000000 -0.100000 0.000000
vn 0.000000 -0.100000 0.000000
vn 0.000000 -0.100000 0.000000
vn 0.000000 0.000000 -0.100000
vn 0.000000 0.000000 -0.100000
vn 0.000000 0.000000 -0.100000
vn 0.000000 0.000000 -0.100000
vn 0.000000 0.000000 -0.100000
vn 0.000000 0.000000 -0.100000
vn 0.000000 0.000000 -0.100000
vn 0.000000 0.000000 -0.100000
vn -0.100000 0.000000 0.000000
vn -0.100000 0.000000 0.000000
vn -0.100000 0.000000 0.000000
vn -0.100000 0.000000 0.000000
vn 0.000000 0.100000 0.000000
vn 0.000000 0.100000 0.000000
vn 0.000000 0.100000 0.000000
vn 0.000000 0.100000 0.000000
vn 0.100000 0.000000 0.000000
vn 0.100000 0.000000 0.000000
vn 0.100000 0.000000 0.000000
vn 0.100000 0.000000 0.000000
vn 0.000000 -0.100000 0.000000
vn 0.000000 -0.100000 0.000000
vn 0.000000 -0.100000 0.000000
vn 0.000000 -0.100000 0.000000
vn 0.000000 0.000000 0.100000
vn 0.000000 0.000000 0.100000
vn 0.000000 0.000000 0.100000
vn 0.000000 0.000000 0.100000
vn 0.000000 0.000000 0.100000
vn 0.000000 0.000000 0.100000
vn 0.000000 0.000000 0.100000
vn 0.000000 0.000000 0.100000
vn -0.100000 -0.000000 0.000000
vn -0.100000 -0.000000 0.000000
vn -0.100000 -0.000000 0.000000
vn -0.100000 -0.000000 0.000000
vn 0.000000 0.100000 0.000000
vn 0.000000 0.100000 0.000000
vn 0.000000 0.100000 0.000000
vn 0.000000 0.100000 0.000000
vn 0.100000 0.000000 0.000000
vn 0.100000 0.000000 0.000000
vn 0.100000 0.000000 0.000000
vn 0.100000 0.000000 0.000000
vn 0.000000 -0.100000 0.000000
vn 0.000000 -0.100000 0.000000
vn 0.000000 -0.100000 0.000000
vn 0.000000 -0.100000 0.000000
vn 0.000000 0.000000 -0.100000
vn 0.000000 0.000000 -0.100000
vn 0.000000 0.000000 -0.100000
vn 0.000000 0.000000 -0.100000
vn 0.000000 0.000000 -0.100000
vn 0.000000 0.000000 -0.100000
vn 0.000000 0.000000 -0.100000
vn 0.000000 0.000000 -0.100000
usemtl Steel_-_Satin
f 1/1/1 2/2/2 4/3/3
f 4/3/3 2/2/2 3/4/4
f 5/5/5 1/6/6 6/7/7
f 6/7/7 1/6/6 4/8/8
f 7/9/9 5/10/10 8/11/11
f 8/11/11 5/10/10 6/12/12
f 2/13/13 7/14/14 3/15/15
f 3/15/15 7/14/14 8/16/16
f 10/17/17 15/18/18 9/19/19
f 9/19/19 15/18/18 16/20/20
f 9/19/19 16/20/20 12/21/21
f 12/21/21 16/20/20 13/22/22
f 12/21/21 13/22/22 11/23/23
f 11/23/23 13/22/22 10/17/17
f 10/17/17 13/22/22 14/24/24
f 10/17/17 14/24/24 15/18/18
f 11/25/25 10/26/26 18/27/27
f 18/27/27 10/26/26 17/28/28
f 12/29/29 11/30/30 19/31/31
f 19/31/31 11/30/30 18/32/32
f 9/33/33 12/34/34 20/35/35
f 20/35/35 12/34/34 19/36/36
f 10/37/37 9/38/38 17/39/39
f 17/39/39 9/38/38 20/40/40
f 1/41/41 5/42/42 17/43/43
f 17/43/43 5/42/42 7/44/44
f 17/43/43 7/44/44 18/45/45
f 18/45/45 7/44/44 2/46/46
f 18/45/45 2/46/46 19/47/47
f 19/47/47 2/46/46 20/48/48
f 20/48/48 2/46/46 1/41/41
f 20/48/48 1/41/41 17/43/43
f 21/49/49 22/50/50 13/51/51
f 13/51/51 22/50/50 14/52/52
f 23/53/53 21/54/54 16/55/55
f 16/55/55 21/54/54 13/56/56
f 24/57/57 23/58/58 15/59/59
f 15/59/59 23/58/58 16/60/60
f 22/61/61 24/62/62 14/63/63
f 14/63/63 24/62/62 15/64/64
f 6/65/65 22/66/66 8/67/67
f 8/67/67 22/66/66 21/68/68
f 8/67/67 21/68/68 3/69/69
f 3/69/69 21/68/68 23/70/70
f 3/69/69 23/70/70 24/71/71
f 6/65/65 4/72/72 22/66/66
f 22/66/66 4/72/72 24/71/71
f 24/71/71 4/72/72 3/69/69
# 24 vertices
# 72 texture params
# 72 normals
# 48 facets

# 1 groups
